<?xml version="1.0" encoding="utf-8"?>
<!-- Generator: Adobe Illustrator 27.5.0, SVG Export Plug-In . SVG Version: 6.00 Build 0)  -->
<svg version="1.1" xmlns="http://www.w3.org/2000/svg" xmlns:xlink="http://www.w3.org/1999/xlink" x="0px" y="0px"
	 viewBox="0 0 500 500" style="enable-background:new 0 0 500 500;" xml:space="preserve">
<g id="BACKGROUND">
</g>
<g id="OBJECTS">
	<g>
		<path style="fill:#8EAF47;" d="M277.537,290.848c-1.022,2.363,1.523,3.928,3.643,2.542l64.564-41.424
			c0.073-0.05,0.129-0.102,0.18-0.176c1.256-1.798,16.92-27.324-1.409-49.759c-0.228-0.279-0.627-0.335-0.919-0.128
			c-5.913,4.199-63.224,37.399-70.032,41.625c-0.357,0.221-0.454,0.707-0.227,1.075
			C275.381,247.906,289.604,262.955,277.537,290.848z"/>
		<path style="opacity:0.15;fill:#0A293E;" d="M274.178,335.691L274.178,335.691c-5.248-13.491-5.379-28.437-0.367-42.017
			l0.367-0.994l-119.325,0.403l-8.205,23.261l10.462,21.151L274.178,335.691z"/>
		<path style="opacity:0.15;fill:#0A293E;" d="M274.178,244.635L274.178,244.635c-5.248-13.491-5.379-28.437-0.367-42.017
			l0.367-0.994l-119.177,1.134l-8.353,22.53l10.462,21.151L274.178,244.635z"/>
		<path style="fill:#8EAF47;" d="M273.735,203.734H155.334c-1.915,0-2.53-2.577-0.822-3.443l64.148-32.491
			c1.324-0.671,2.787-1.02,4.271-1.02h123.763L273.735,203.734z"/>
		<path style="fill:none;stroke:#8EAF47;stroke-width:4.6192;stroke-linecap:round;stroke-miterlimit:10;" d="M155.001,202.758
			c-10.543,13.755-9.986,32.064,0.878,42.157c1.098,1.02,2.57,1.543,4.068,1.524l114.231-1.504"/>
		<path style="fill:none;stroke:#8EAF47;stroke-width:4.6192;stroke-linecap:round;stroke-miterlimit:10;" d="M278.647,292.182
			l-121.076,1.428c-1.665,0.02-3.228,0.853-4.146,2.243c-8.88,13.451-7.838,30.385,2.454,39.945c1.098,1.02,2.57,1.543,4.068,1.524
			l117.592-1.486c0.922-0.012,1.825-0.268,2.615-0.744l68.91-41.451"/>
		<path style="fill:none;stroke:#1B4E6B;stroke-width:7.3392;stroke-miterlimit:10;" d="M227.678,185.258v-34.742
			c0-12.385,10.04-22.425,22.425-22.425l0,0c12.385,0,22.425,10.04,22.425,22.425v34.742"/>
		<polygon style="fill:#1B4E6B;" points="332.025,248.09 319.734,246.817 304.547,263.651 303.744,208.51 331.403,194.069 		"/>
		
			<line style="opacity:0.77;fill:none;stroke:#FFFFFF;stroke-width:3;stroke-linecap:round;stroke-miterlimit:10;" x1="165.876" y1="223.129" x2="255.89" y2="223.129"/>
		
			<line style="opacity:0.15;fill:none;stroke:#301C11;stroke-width:3;stroke-linecap:round;stroke-miterlimit:10;" x1="160.568" y1="272.488" x2="175.097" y2="272.488"/>
		
			<line style="opacity:0.15;fill:none;stroke:#301C11;stroke-width:3;stroke-linecap:round;stroke-miterlimit:10;" x1="196.354" y1="271.769" x2="270.735" y2="271.769"/>
		
			<line style="opacity:0.77;fill:none;stroke:#FFFFFF;stroke-width:3;stroke-linecap:round;stroke-miterlimit:10;" x1="165.876" y1="316.467" x2="211.812" y2="316.467"/>
		
			<line style="opacity:0.77;fill:none;stroke:#FFFFFF;stroke-width:3;stroke-linecap:round;stroke-miterlimit:10;" x1="228.85" y1="316.467" x2="257.417" y2="316.467"/>
		
			<line style="opacity:0.15;fill:none;stroke:#301C11;stroke-width:3;stroke-linecap:round;stroke-miterlimit:10;" x1="289.985" y1="306.797" x2="323.878" y2="288.365"/>
		
			<line style="opacity:0.15;fill:none;stroke:#301C11;stroke-width:3;stroke-linecap:round;stroke-miterlimit:10;" x1="332.736" y1="283.403" x2="342.126" y2="278.297"/>
		
			<line style="opacity:0.15;fill:none;stroke:#301C11;stroke-width:3;stroke-linecap:round;stroke-miterlimit:10;" x1="300.976" y1="209.956" x2="336.031" y2="191.652"/>
		
			<line style="opacity:0.15;fill:none;stroke:#301C11;stroke-width:3;stroke-linecap:round;stroke-miterlimit:10;" x1="284.337" y1="217.706" x2="290.326" y2="214.579"/>
		<path style="opacity:0.15;fill:#1B4E6B;" d="M320.694,229.349c-3.031,4.849-7.086,9.247-12.012,12.209
			c-1.512,0.909-2.97,1.459-4.429,1.849l0.295,20.244l15.187-16.833l12.291,1.273l-0.532-46.189
			c-0.102,0.289-0.198,0.578-0.287,0.861C328.343,211.882,325.76,221.243,320.694,229.349z"/>
		<path style="opacity:0.15;fill:#758E32;" d="M339.042,248.752c-12.579,9.772-26.656,17.614-41.591,23.154
			c-4.81,1.784-10.761,2.574-15.645,4.594c-0.667,4.336-2.006,9.116-4.269,14.348c-1.023,2.363,1.523,3.928,3.642,2.542
			l64.564-41.424c0.073-0.05,0.129-0.101,0.18-0.176c0.563-0.805,4.009-6.375,6.004-14.288
			C347.837,241.48,343.547,245.252,339.042,248.752z"/>
		<path style="opacity:0.15;fill:#758E32;" d="M346.694,166.781h-27.306c-2.174,1.468-4.354,2.927-6.56,4.337
			c-10.392,6.648-21.453,12.243-32.939,16.739c-20.805,8.144-43.005,12.691-65.33,13.473c-11.159,0.391-22.353-0.161-33.416-1.679
			c-5.583-0.766-11.132-1.778-16.625-3.039c-0.622-0.143-1.231-0.299-1.833-0.459l-8.174,4.14c-1.708,0.865-1.093,3.443,0.822,3.443
			h118.401L346.694,166.781z"/>
	</g>
</g>
<g id="TEXTS">
	<g>
		<text transform="matrix(1 0 0 1 145.6003 390.0316)"><tspan x="0" y="0" style="fill:#1B4E6B; font-family:'Montserrat-Black'; font-size:29.0122px; letter-spacing:2;">Book</tspan><tspan x="102.528" y="0" style="fill:#8EAF47; font-family:'Montserrat-Medium'; font-size:29.0122px; letter-spacing:2;">Store</tspan></text>
		<g>
			
				<text transform="matrix(1 0 0 1 191.067 410.9895)" style="fill:#1B4E6B; font-family:'Montserrat-Medium'; font-size:9.3911px;">with love to books</text>
		</g>
	</g>
</g>
</svg>
